#Produced by Art of Illusion 2.2, Wed Apr 26 20:58:28 CEST 2006
mtllib drone.mtl
g body
usemtl Drone
v 0.745 0 0
v 0.68829 0.1282 0
v 0.68829 0 0.31189
v 0.52679 0.23688 0
v 0.60829 0.13676 0.33272
v 0.52679 0 0.57629
v 0.2851 0.3095 0
v 0.30414 0.27353 0.33272
v 0.30414 0.13676 0.66544
v 0.2851 0 0.75296
v 0 0.335 0
v 0 0.3095 0.31189
v 0 0.23688 0.57629
v 0 0.1282 0.75296
v 0 0 0.815
v -0.745 0 0
v -0.68829 0 0.31189
v -0.68829 0.1282 0
v -0.60829 0.13676 0.33272
v -0.52679 0.23688 0
v -0.52679 0 0.57629
v -0.30414 0.27353 0.33272
v -0.2851 0.3095 0
v -0.30414 0.13676 0.66544
v -0.2851 0 0.75296
v -0.68829 -0.1282 0
v -0.52679 -0.23688 0
v -0.60829 -0.13676 0.33272
v -0.2851 -0.3095 0
v -0.30414 -0.27353 0.33272
v -0.30414 -0.13676 0.66544
v 0 -0.335 0
v 0 -0.3095 0.31189
v 0 -0.23688 0.57629
v 0 -0.1282 0.75296
v 0.68829 -0.1282 0
v 0.60829 -0.13676 0.33272
v 0.52679 -0.23688 0
v 0.30414 -0.27353 0.33272
v 0.2851 -0.3095 0
v 0.30414 -0.13676 0.66544
v 0.68829 0 -0.31189
v 0.60829 0.13676 -0.33272
v 0.52679 0 -0.57629
v 0.30414 0.27353 -0.33272
v 0.30414 0.13676 -0.66544
v 0.2851 0 -0.75296
v 0 0.3095 -0.31189
v 0 0.23688 -0.57629
v 0 0.1282 -0.75296
v 0 0 -0.815
v -0.68829 0 -0.31189
v -0.60829 0.13676 -0.33272
v -0.52679 0 -0.57629
v -0.30414 0.27353 -0.33272
v -0.30414 0.13676 -0.66544
v -0.2851 0 -0.75296
v -0.60829 -0.13676 -0.33272
v -0.30414 -0.27353 -0.33272
v -0.30414 -0.13676 -0.66544
v 0 -0.3095 -0.31189
v 0 -0.23688 -0.57629
v 0 -0.1282 -0.75296
v 0.60829 -0.13676 -0.33272
v 0.30414 -0.27353 -0.33272
v 0.30414 -0.13676 -0.66544
vn 1 0 0
vn 0.80674 0.5909 0
vn 0.94983 0 0.31276
vn 0.42183 0.90667 -0
vn 0.62687 0.70871 0.32366
vn 0.73674 0 0.67617
vn 0.16317 0.9866 -0
vn 0.2487 0.94139 0.22788
vn 0.36077 0.72273 0.5895
vn 0.36359 0 0.93156
vn 0 1 0
vn -0 0.98873 0.14972
vn 0 0.91988 0.39221
vn 0 0.62147 0.78344
vn 0 0 1
vn -1 0 0
vn -0.94983 0 0.31276
vn -0.80674 0.5909 0
vn -0.62687 0.70871 0.32366
vn -0.42183 0.90667 -0
vn -0.73674 0 0.67617
vn -0.2487 0.94139 0.22788
vn -0.16317 0.9866 -0
vn -0.36077 0.72273 0.5895
vn -0.36359 0 0.93156
vn -0.80674 -0.5909 0
vn -0.42183 -0.90667 -0
vn -0.62687 -0.70871 0.32366
vn -0.16317 -0.9866 -0
vn -0.2487 -0.94139 0.22788
vn -0.36077 -0.72273 0.5895
vn 0 -1 0
vn 0 -0.98873 0.14972
vn 0 -0.91988 0.39221
vn 0 -0.62147 0.78344
vn 0.80674 -0.5909 0
vn 0.62687 -0.70871 0.32366
vn 0.42183 -0.90667 -0
vn 0.2487 -0.94139 0.22788
vn 0.16317 -0.9866 -0
vn 0.36077 -0.72273 0.5895
vn 0.94983 0 -0.31276
vn 0.62687 0.70871 -0.32366
vn 0.73674 0 -0.67617
vn 0.2487 0.94139 -0.22788
vn 0.36077 0.72273 -0.5895
vn 0.36359 0 -0.93156
vn -0 0.98873 -0.14972
vn 0 0.91988 -0.39221
vn 0 0.62147 -0.78344
vn 0 0 -1
vn -0.94983 0 -0.31276
vn -0.62687 0.70871 -0.32366
vn -0.73674 0 -0.67617
vn -0.2487 0.94139 -0.22788
vn -0.36077 0.72273 -0.5895
vn -0.36359 0 -0.93156
vn -0.62687 -0.70871 -0.32366
vn -0.2487 -0.94139 -0.22788
vn -0.36077 -0.72273 -0.5895
vn 0 -0.98873 -0.14972
vn 0 -0.91988 -0.39221
vn 0 -0.62147 -0.78344
vn 0.62687 -0.70871 -0.32366
vn 0.2487 -0.94139 -0.22788
vn 0.36077 -0.72273 -0.5895
vt -0.48034 -0.28962
vt -0.48034 -0.30638
vt -0.41891 -0.30638
vt -0.48034 -0.35409
vt -0.4148 -0.33001
vt -0.36683 -0.35409
vt -0.48034 -0.4255
vt -0.4148 -0.41988
vt -0.34927 -0.41988
vt -0.33203 -0.4255
vt -0.48034 -0.50974
vt -0.41891 -0.50974
vt -0.36683 -0.50974
vt -0.33203 -0.50974
vt -0.31981 -0.50974
vt -0.48034 -0.72985
vt -0.41891 -0.71309
vt -0.48034 -0.71309
vt -0.4148 -0.68946
vt -0.48034 -0.66538
vt -0.36683 -0.66538
vt -0.4148 -0.5996
vt -0.48034 -0.59397
vt -0.34927 -0.5996
vt -0.33203 -0.59397
vt -0.46097 -0.80089
vt -0.46097 -0.84846
vt -0.38214 -0.77246
vt -0.47301 -0.88474
vt -0.24004 -0.92022
vt -0.3033 -0.66436
vt -0.47301 -0.5969
vt -0.26308 -0.5969
vt -0.24787 -0.55626
vt -0.28256 -0.55626
vt -0.46097 -0.31162
vt -0.38214 -0.34006
vt -0.46097 -0.26405
vt -0.24004 -0.30609
vt -0.47301 -0.30906
vt -0.3033 -0.44816
vt -0.54177 -0.30638
vt -0.54587 -0.33001
vt -0.59385 -0.35409
vt -0.54587 -0.41988
vt -0.61141 -0.41988
vt -0.62865 -0.4255
vt -0.54177 -0.50974
vt -0.59385 -0.50974
vt -0.62865 -0.50974
vt -0.64087 -0.50974
vt -0.54177 -0.71309
vt -0.54587 -0.68946
vt -0.59385 -0.66538
vt -0.54587 -0.5996
vt -0.61141 -0.5996
vt -0.62865 -0.59397
vt -0.53981 -0.77246
vt -0.68793 -0.92022
vt -0.61865 -0.66436
vt -0.68293 -0.5969
vt -0.67408 -0.55626
vt -0.63939 -0.55626
vt -0.53981 -0.34006
vt -0.68793 -0.30609
vt -0.61865 -0.44816
f 1/1/1 2/2/2 3/3/3
f 2/2/2 4/4/4 5/5/5
f 2/2/2 5/5/5 3/3/3
f 3/3/3 5/5/5 6/6/6
f 4/4/4 7/7/7 8/8/8
f 4/4/4 8/8/8 5/5/5
f 5/5/5 8/8/8 9/9/9
f 5/5/5 9/9/9 6/6/6
f 6/6/6 9/9/9 10/10/10
f 7/7/7 11/11/11 12/12/12
f 7/7/7 12/12/12 8/8/8
f 8/8/8 12/12/12 13/13/13
f 8/8/8 13/13/13 9/9/9
f 9/9/9 13/13/13 14/14/14
f 9/9/9 14/14/14 10/10/10
f 10/10/10 14/14/14 15/15/15
f 16/16/16 17/17/17 18/18/18
f 18/18/18 19/19/19 20/20/20
f 18/18/18 17/17/17 19/19/19
f 17/17/17 21/21/21 19/19/19
f 20/20/20 22/22/22 23/23/23
f 20/20/20 19/19/19 22/22/22
f 19/19/19 24/24/24 22/22/22
f 19/19/19 21/21/21 24/24/24
f 21/21/21 25/25/25 24/24/24
f 23/23/23 12/12/12 11/11/11
f 23/23/23 22/22/22 12/12/12
f 22/22/22 13/13/13 12/12/12
f 22/22/22 24/24/24 13/13/13
f 24/24/24 14/14/14 13/13/13
f 24/24/24 25/25/25 14/14/14
f 25/25/25 15/15/15 14/14/14
f 16/16/16 26/26/26 17/17/17
f 26/26/26 27/27/27 28/28/28
f 26/26/26 28/28/28 17/17/17
f 17/17/17 28/28/28 21/21/21
f 27/27/27 29/29/29 30/30/30
f 27/27/27 30/30/30 28/28/28
f 28/28/28 30/30/30 31/31/31
f 28/28/28 31/31/31 21/21/21
f 21/21/21 31/31/31 25/25/25
f 29/29/29 32/32/32 33/33/33
f 29/29/29 33/33/33 30/30/30
f 30/30/30 33/33/33 34/34/34
f 30/30/30 34/34/34 31/31/31
f 31/31/31 34/34/34 35/35/35
f 31/31/31 35/35/35 25/25/25
f 25/25/25 35/35/35 15/15/15
f 1/1/1 3/3/3 36/36/36
f 36/36/36 37/37/37 38/38/38
f 36/36/36 3/3/3 37/37/37
f 3/3/3 6/6/6 37/37/37
f 38/38/38 39/39/39 40/40/40
f 38/38/38 37/37/37 39/39/39
f 37/37/37 41/41/41 39/39/39
f 37/37/37 6/6/6 41/41/41
f 6/6/6 10/10/10 41/41/41
f 40/40/40 33/33/33 32/32/32
f 40/40/40 39/39/39 33/33/33
f 39/39/39 34/34/34 33/33/33
f 39/39/39 41/41/41 34/34/34
f 41/41/41 35/35/35 34/34/34
f 41/41/41 10/10/10 35/35/35
f 10/10/10 15/15/15 35/35/35
f 1/1/1 42/42/42 2/2/2
f 2/2/2 43/43/43 4/4/4
f 2/2/2 42/42/42 43/43/43
f 42/42/42 44/44/44 43/43/43
f 4/4/4 45/45/45 7/7/7
f 4/4/4 43/43/43 45/45/45
f 43/43/43 46/46/46 45/45/45
f 43/43/43 44/44/44 46/46/46
f 44/44/44 47/47/47 46/46/46
f 7/7/7 48/48/48 11/11/11
f 7/7/7 45/45/45 48/48/48
f 45/45/45 49/49/49 48/48/48
f 45/45/45 46/46/46 49/49/49
f 46/46/46 50/50/50 49/49/49
f 46/46/46 47/47/47 50/50/50
f 47/47/47 51/51/51 50/50/50
f 16/16/16 18/18/18 52/52/52
f 18/18/18 20/20/20 53/53/53
f 18/18/18 53/53/53 52/52/52
f 52/52/52 53/53/53 54/54/54
f 20/20/20 23/23/23 55/55/55
f 20/20/20 55/55/55 53/53/53
f 53/53/53 55/55/55 56/56/56
f 53/53/53 56/56/56 54/54/54
f 54/54/54 56/56/56 57/57/57
f 23/23/23 11/11/11 48/48/48
f 23/23/23 48/48/48 55/55/55
f 55/55/55 48/48/48 49/49/49
f 55/55/55 49/49/49 56/56/56
f 56/56/56 49/49/49 50/50/50
f 56/56/56 50/50/50 57/57/57
f 57/57/57 50/50/50 51/51/51
f 16/16/16 52/52/52 26/26/26
f 26/26/26 58/58/58 27/27/27
f 26/26/26 52/52/52 58/58/58
f 52/52/52 54/54/54 58/58/58
f 27/27/27 59/59/59 29/29/29
f 27/27/27 58/58/58 59/59/59
f 58/58/58 60/60/60 59/59/59
f 58/58/58 54/54/54 60/60/60
f 54/54/54 57/57/57 60/60/60
f 29/29/29 61/61/61 32/32/32
f 29/29/29 59/59/59 61/61/61
f 59/59/59 62/62/62 61/61/61
f 59/59/59 60/60/60 62/62/62
f 60/60/60 63/63/63 62/62/62
f 60/60/60 57/57/57 63/63/63
f 57/57/57 51/51/51 63/63/63
f 1/1/1 36/36/36 42/42/42
f 36/36/36 38/38/38 64/64/64
f 36/36/36 64/64/64 42/42/42
f 42/42/42 64/64/64 44/44/44
f 38/38/38 40/40/40 65/65/65
f 38/38/38 65/65/65 64/64/64
f 64/64/64 65/65/65 66/66/66
f 64/64/64 66/66/66 44/44/44
f 44/44/44 66/66/66 47/47/47
f 40/40/40 32/32/32 61/61/61
f 40/40/40 61/61/61 65/65/65
f 65/65/65 61/61/61 62/62/62
f 65/65/65 62/62/62 66/66/66
f 66/66/66 62/62/62 63/63/63
f 66/66/66 63/63/63 47/47/47
f 47/47/47 63/63/63 51/51/51
g leg_4
usemtl Default_Texture
v 0 -0.12978 -0.36
v -0.0433 -0.08479 -0.42
v 0 -0.4999 -0.65
v -0.0433 -0.4999 -0.725
v 0.0433 -0.08479 -0.42
v 0.0433 -0.4999 -0.725
v 0 -1.30013 -0.35
v -0.0433 -1.30013 -0.425
v 0.0433 -1.30013 -0.425
v 0 -1.54179 -0.67226
v -0.0433 -1.47939 -0.71387
v 0.0433 -1.47939 -0.71387
vn 0.45201 -0.5433 0.70747
vn -0.99876 -0.03639 0.03398
vn -0.0075 -0.16378 0.98647
vn -0.87509 0.29809 -0.38127
vn 0.5 0.51278 -0.6979
vn 0.86807 -0.20177 -0.4536
vn -0.01141 -0.37073 0.92867
vn -0.86882 -0.23092 -0.43797
vn 0.88463 0.40547 -0.23029
vn -0.39176 -0.75018 0.53268
vn -0.5 0.73585 -0.45664
vn 0.98797 -0.1143 0.10416
f 67//67 68//68 69//69
f 68//68 70//70 69//69
f 68//68 71//71 70//70
f 71//71 72//72 70//70
f 71//71 67//67 72//72
f 67//67 69//69 72//72
f 69//69 70//70 73//73
f 70//70 74//74 73//73
f 70//70 72//72 74//74
f 72//72 75//75 74//74
f 72//72 69//69 75//75
f 69//69 73//73 75//75
f 73//73 74//74 76//76
f 74//74 77//77 76//76
f 74//74 75//75 77//77
f 75//75 78//78 77//77
f 75//75 73//73 78//78
f 73//73 76//76 78//78
g leg_3
usemtl Default_Texture
v 0 -0.12978 0.36
v 0.0433 -0.08479 0.42
v 0 -0.4999 0.65
v 0.0433 -0.4999 0.725
v -0.0433 -0.08479 0.42
v -0.0433 -0.4999 0.725
v 0 -1.30013 0.35
v 0.0433 -1.30013 0.425
v -0.0433 -1.30013 0.425
v 0 -1.54179 0.67226
v 0.0433 -1.47939 0.71387
v -0.0433 -1.47939 0.71387
vn -0.45201 -0.5433 -0.70747
vn 0.99876 -0.03639 -0.03398
vn 0.0075 -0.16378 -0.98647
vn 0.87509 0.29809 0.38127
vn -0.5 0.51278 0.6979
vn -0.86807 -0.20177 0.4536
vn 0.01141 -0.37073 -0.92867
vn 0.86882 -0.23092 0.43797
vn -0.88463 0.40547 0.23029
vn 0.39176 -0.75018 -0.53268
vn 0.5 0.73585 0.45664
vn -0.98797 -0.1143 -0.10416
f 79//79 80//80 81//81
f 80//80 82//82 81//81
f 80//80 83//83 82//82
f 83//83 84//84 82//82
f 83//83 79//79 84//84
f 79//79 81//81 84//84
f 81//81 82//82 85//85
f 82//82 86//86 85//85
f 82//82 84//84 86//86
f 84//84 87//87 86//86
f 84//84 81//81 87//87
f 81//81 85//85 87//87
f 85//85 86//86 88//88
f 86//86 89//89 88//88
f 86//86 87//87 89//89
f 87//87 90//90 89//89
f 87//87 85//85 90//90
f 85//85 88//88 90//90
g leg_2
usemtl Default_Texture
v 0.36 -0.12989 0
v 0.42 -0.08489 -0.0433
v 0.65 -0.49995 0
v 0.725 -0.49995 -0.0433
v 0.42 -0.08489 0.0433
v 0.725 -0.49995 0.0433
v 0.35 -1.30006 0
v 0.425 -1.30006 -0.0433
v 0.425 -1.30006 0.0433
v 0.67226 -1.54169 0
v 0.71387 -1.47929 -0.0433
v 0.71387 -1.47929 0.0433
vn -0.70743 -0.54335 0.45201
vn -0.03397 -0.03639 -0.99876
vn -0.98647 -0.16379 -0.00751
vn 0.38125 0.29811 -0.87509
vn 0.69787 0.51282 0.5
vn 0.45359 -0.2018 0.86806
vn -0.92866 -0.37075 -0.01141
vn 0.43796 -0.23095 -0.86882
vn 0.23025 0.40549 0.88463
vn -0.53264 -0.75023 -0.39174
vn 0.45658 0.73589 -0.5
vn -0.10417 -0.11433 0.98797
f 91//91 92//92 93//93
f 92//92 94//94 93//93
f 92//92 95//95 94//94
f 95//95 96//96 94//94
f 95//95 91//91 96//96
f 91//91 93//93 96//96
f 93//93 94//94 97//97
f 94//94 98//98 97//97
f 94//94 96//96 98//98
f 96//96 99//99 98//98
f 96//96 93//93 99//99
f 93//93 97//97 99//99
f 97//97 98//98 100//100
f 98//98 101//101 100//100
f 98//98 99//99 101//101
f 99//99 102//102 101//101
f 99//99 97//97 102//102
f 97//97 100//100 102//102
g turret_pipe
usemtl Default_Texture
v 0 -0.4183 0.04151
v 0.05 -0.375 0.01651
v 0 -0.375 0.01651
v -0.05 -0.375 0.01651
v 0 -0.3317 -0.00849
v 0.05 -0.625 -0.41651
v 0 -0.6683 -0.39151
v -0.05 -0.625 -0.41651
v 0 -0.5817 -0.44151
v 0 -0.625 -0.41651
vn 0.2357 -0.27904 0.9309
vn 0.7071 0.53747 0.4595
vn 0 0.50001 0.86602
vn -0.7071 0.12921 0.6952
vn -0.2357 0.94571 0.22379
vn 0.7071 -0.53747 -0.4595
vn -0.2357 -0.94571 -0.22379
vn -0.7071 -0.12921 -0.6952
vn 0.2357 0.27904 -0.9309
vn 0 -0.50001 -0.86602
f 103//103 104//104 105//105
f 106//106 103//103 105//105
f 107//107 106//106 105//105
f 104//104 107//107 105//105
f 108//108 104//104 103//103
f 109//109 103//103 106//106
f 110//110 106//106 107//107
f 111//111 107//107 104//104
f 108//108 103//103 109//109
f 109//109 106//106 110//110
f 110//110 107//107 111//111
f 111//111 104//104 108//108
f 112//112 108//108 109//109
f 112//112 109//109 110//110
f 112//112 110//110 111//111
f 112//112 111//111 108//108
g leg_1
usemtl Default_Texture
v -0.44 -0.07 0
v -0.38 -0.115 -0.0433
v -0.75 -0.5 0
v -0.675 -0.5 -0.0433
v -0.38 -0.115 0.0433
v -0.675 -0.5 0.0433
v -0.45 -1.3 0
v -0.375 -1.3 -0.0433
v -0.375 -1.3 0.0433
v -0.72774 -1.4584 0
v -0.68613 -1.5208 -0.0433
v -0.68613 -1.5208 0.0433
vn -0.71611 0.52638 0.45837
vn -0.04696 0.02503 -0.99858
vn -0.98821 0.15309 -0.00308
vn 0.37448 -0.30545 -0.87548
vn 0.68743 -0.52673 0.5
vn 0.4505 0.19049 0.87222
vn -0.91308 0.40696 0.02588
vn 0.46125 0.27419 -0.84384
vn 0.25722 -0.39285 0.8829
vn -0.48722 0.80115 -0.34753
vn 0.50121 -0.70625 -0.5
vn -0.04922 0.12318 0.99116
f 113//113 114//114 115//115
f 114//114 116//116 115//115
f 114//114 117//117 116//116
f 117//117 118//118 116//116
f 117//117 113//113 118//118
f 113//113 115//115 118//118
f 115//115 116//116 119//119
f 116//116 120//120 119//119
f 116//116 118//118 120//120
f 118//118 121//121 120//120
f 118//118 115//115 121//121
f 115//115 119//119 121//121
f 119//119 120//120 122//122
f 120//120 123//123 122//122
f 120//120 121//121 123//123
f 121//121 124//124 123//123
f 121//121 119//119 124//124
f 119//119 122//122 124//124
g turret
usemtl Default_Texture
v 0.29 -0.3 0
v 0.20506 -0.11615 0
v 0.20506 -0.3 0.18385
v 0 -0.04 0
v 0 -0.11615 0.18385
v 0 -0.3 0.26
v -0.29 -0.3 0
v -0.20506 -0.3 0.18385
v -0.20506 -0.11615 0
v -0.20506 -0.48385 0
v 0 -0.56 0
v 0 -0.48385 0.18385
v 0.20506 -0.48385 0
v 0.20506 -0.3 -0.18385
v 0 -0.11615 -0.18385
v 0 -0.3 -0.26
v -0.20506 -0.3 -0.18385
v 0 -0.48385 -0.18385
vn 1 0 0
vn 0.67444 0.73833 -0
vn 0.67444 0 0.73833
vn 0 1 0
vn 0 0.70711 0.70711
vn 0 0 1
vn -1 0 0
vn -0.67444 0 0.73833
vn -0.67444 0.73833 -0
vn -0.67444 -0.73833 0
vn 0 -1 0
vn 0 -0.70711 0.70711
vn 0.67444 -0.73833 0
vn 0.67444 0 -0.73833
vn 0 0.70711 -0.70711
vn 0 0 -1
vn -0.67444 0 -0.73833
vn 0 -0.70711 -0.70711
f 125//125 126//126 127//127
f 126//126 128//128 129//129
f 126//126 129//129 127//127
f 127//127 129//129 130//130
f 131//131 132//132 133//133
f 133//133 129//129 128//128
f 133//133 132//132 129//129
f 132//132 130//130 129//129
f 131//131 134//134 132//132
f 134//134 135//135 136//136
f 134//134 136//136 132//132
f 132//132 136//136 130//130
f 125//125 127//127 137//137
f 137//137 136//136 135//135
f 137//137 127//127 136//136
f 127//127 130//130 136//136
f 125//125 138//138 126//126
f 126//126 139//139 128//128
f 126//126 138//138 139//139
f 138//138 140//140 139//139
f 131//131 133//133 141//141
f 133//133 128//128 139//139
f 133//133 139//139 141//141
f 141//141 139//139 140//140
f 131//131 141//141 134//134
f 134//134 142//142 135//135
f 134//134 141//141 142//142
f 141//141 140//140 142//142
f 125//125 137//137 138//138
f 137//137 135//135 142//142
f 137//137 142//142 138//138
f 138//138 142//142 140//140
