#Produced by Art of Illusion 2.2, Mon May 15 19:36:55 CEST 2006
mtllib torpedo.mtl
g body
usemtl metallic
v 0 -0 0.34407
v 0.045 -0 0.34407
v 0.03182 -0.03182 0.34407
v 0 -0.045 0.34407
v -0.03182 -0.03182 0.34407
v -0.045 -0 0.34407
v -0.03182 0.03182 0.34407
v 0 0.045 0.34407
v 0.03182 0.03182 0.34407
v 0.045 0 -0.2596
v 0.03182 -0.03182 -0.2596
v 0 -0.045 -0.2596
v -0.03182 -0.03182 -0.2596
v -0.045 0 -0.2596
v -0.03182 0.03182 -0.2596
v 0 0.045 -0.2596
v 0.03182 0.03182 -0.2596
v 0 0 -0.40593
v 0.0375 0 -0.32544
v 0.02652 -0.02652 -0.32544
v 0 -0.0375 -0.32544
v -0.02652 -0.02652 -0.32544
v -0.0375 0 -0.32544
v -0.02652 0.02652 -0.32544
v 0 0.0375 -0.32544
v 0.02652 0.02652 -0.32544
v 0.03 0 -0.35894
v 0.02121 -0.02121 -0.35894
v 0 -0.03 -0.35894
v -0.02121 -0.02121 -0.35894
v -0.03 0 -0.35894
v -0.02121 0.02121 -0.35894
v 0 0.03 -0.35894
v 0.02121 0.02121 -0.35894
v 0.0175 0 -0.38898
v 0.01237 -0.01237 -0.38898
v 0 -0.0175 -0.38898
v -0.01237 -0.01237 -0.38898
v -0.0175 0 -0.38898
v -0.01237 0.01237 -0.38898
v 0 0.0175 -0.38898
v 0.01237 0.01237 -0.38898
vn 0 -0 1
vn 0.80589 0.11127 0.58152
vn 0.64853 -0.49117 0.58152
vn 0.11127 -0.80589 0.58152
vn -0.49117 -0.64853 0.58152
vn -0.80589 -0.11127 0.58152
vn -0.64853 0.49117 0.58152
vn -0.11127 0.80589 0.58152
vn 0.49117 0.64853 0.58152
vn 0.99839 -0.00038 -0.05671
vn 0.7057 -0.70624 -0.05671
vn -0.00038 -0.99839 -0.05671
vn -0.70624 -0.7057 -0.05671
vn -0.99839 0.00038 -0.05671
vn -0.7057 0.70624 -0.05671
vn 0.00038 0.99839 -0.05671
vn 0.70624 0.7057 -0.05671
vn -0 0 -1
vn 0.9861 -0.00105 -0.16614
vn 0.69654 -0.69802 -0.16614
vn -0.00105 -0.9861 -0.16614
vn -0.69802 -0.69654 -0.16614
vn -0.9861 0.00105 -0.16614
vn -0.69654 0.69802 -0.16614
vn 0.00105 0.9861 -0.16614
vn 0.69802 0.69654 -0.16614
vn 0.95305 -0.00316 -0.30279
vn 0.67168 -0.67614 -0.30279
vn -0.00316 -0.95305 -0.30279
vn -0.67614 -0.67168 -0.30279
vn -0.95305 0.00316 -0.30279
vn -0.67168 0.67614 -0.30279
vn 0.00316 0.95305 -0.30279
vn 0.67614 0.67168 -0.30279
vn 0.84509 -0.07692 -0.52906
vn 0.54318 -0.65196 -0.52906
vn -0.07692 -0.84509 -0.52906
vn -0.65196 -0.54318 -0.52906
vn -0.84509 0.07692 -0.52906
vn -0.54318 0.65196 -0.52906
vn 0.07692 0.84509 -0.52906
vn 0.65196 0.54318 -0.52906
f 3//3 2//2 1//1
f 4//4 3//3 1//1
f 5//5 4//4 1//1
f 6//6 5//5 1//1
f 7//7 6//6 1//1
f 8//8 7//7 1//1
f 9//9 8//8 1//1
f 2//2 9//9 1//1
f 10//10 2//2 3//3
f 11//11 3//3 4//4
f 12//12 4//4 5//5
f 13//13 5//5 6//6
f 14//14 6//6 7//7
f 15//15 7//7 8//8
f 16//16 8//8 9//9
f 17//17 9//9 2//2
f 10//10 3//3 11//11
f 11//11 4//4 12//12
f 12//12 5//5 13//13
f 13//13 6//6 14//14
f 14//14 7//7 15//15
f 15//15 8//8 16//16
f 16//16 9//9 17//17
f 17//17 2//2 10//10
f 18//18 35//35 36//36
f 18//18 36//36 37//37
f 18//18 37//37 38//38
f 18//18 38//38 39//39
f 18//18 39//39 40//40
f 18//18 40//40 41//41
f 18//18 41//41 42//42
f 18//18 42//42 35//35
f 10//10 11//11 19//19
f 19//19 11//11 20//20
f 17//17 10//10 26//26
f 26//26 10//10 19//19
f 11//11 12//12 20//20
f 20//20 12//12 21//21
f 12//12 13//13 21//21
f 21//21 13//13 22//22
f 13//13 14//14 22//22
f 22//22 14//14 23//23
f 14//14 15//15 23//23
f 23//23 15//15 24//24
f 15//15 16//16 24//24
f 24//24 16//16 25//25
f 16//16 17//17 25//25
f 25//25 17//17 26//26
f 19//19 20//20 27//27
f 27//27 20//20 28//28
f 26//26 19//19 34//34
f 34//34 19//19 27//27
f 20//20 21//21 28//28
f 28//28 21//21 29//29
f 21//21 22//22 29//29
f 29//29 22//22 30//30
f 22//22 23//23 30//30
f 30//30 23//23 31//31
f 23//23 24//24 31//31
f 31//31 24//24 32//32
f 24//24 25//25 32//32
f 32//32 25//25 33//33
f 25//25 26//26 33//33
f 33//33 26//26 34//34
f 27//27 28//28 35//35
f 35//35 28//28 36//36
f 34//34 27//27 42//42
f 42//42 27//27 35//35
f 28//28 29//29 36//36
f 36//36 29//29 37//37
f 29//29 30//30 37//37
f 37//37 30//30 38//38
f 30//30 31//31 38//38
f 38//38 31//31 39//39
f 31//31 32//32 39//39
f 39//39 32//32 40//40
f 32//32 33//33 40//40
f 40//40 33//33 41//41
f 33//33 34//34 41//41
f 41//41 34//34 42//42
g nozzle
usemtl Default_Texture
v 0 -0 0.44723
v 0.0525 -0 0.44723
v 0.03712 -0.03712 0.44723
v 0 -0.0525 0.44723
v -0.03712 -0.03712 0.44723
v -0.0525 -0 0.44723
v -0.03712 0.03712 0.44723
v 0 0.0525 0.44723
v 0.03712 0.03712 0.44723
v 0 0 0.29723
vn 0 -0 1
vn 0.78561 0 0.61872
vn 0.55551 -0.55551 0.61872
vn -0 -0.78561 0.61872
vn -0.55551 -0.55551 0.61872
vn -0.78561 -0 0.61872
vn -0.55551 0.55551 0.61872
vn -0 0.78561 0.61872
vn 0.55551 0.55551 0.61872
vn -0 -0 -1
f 45//45 44//44 43//43
f 46//46 45//45 43//43
f 47//47 46//46 43//43
f 48//48 47//47 43//43
f 49//49 48//48 43//43
f 50//50 49//49 43//43
f 51//51 50//50 43//43
f 44//44 51//51 43//43
f 52//52 44//44 45//45
f 52//52 45//45 46//46
f 52//52 46//46 47//47
f 52//52 47//47 48//48
f 52//52 48//48 49//49
f 52//52 49//49 50//50
f 52//52 50//50 51//51
f 52//52 51//51 44//44
g jet
usemtl glow
v -0.01402 -0.03675 0.45901
v -0.03723 -0.01354 0.45901
v -0.03723 0.01547 0.45901
v -0.01402 0.03675 0.45901
v 0.015 0.03675 0.45901
v 0.03627 0.01547 0.45901
v 0.03627 -0.01354 0.45901
v 0.015 -0.03675 0.45901
v 0 0 0.45901
vn 0 -0 1
vn -0 -0 1
vn -0 0 1
vn 0 0 1
vn 0 0 1
vn 0 0 1
vn 0 -0 1
vn 0 -0 1
vn 0 0 1
f 60//60 61//61 53//53
f 53//53 61//61 54//54
f 54//54 61//61 55//55
f 55//55 61//61 56//56
f 56//56 61//61 57//57
f 57//57 61//61 58//58
f 58//58 61//61 59//59
f 59//59 61//61 60//60
